<svg width="530" height="110" viewBox="0 0 530 110" fill="none" xmlns="http://www.w3.org/2000/svg">
<g opacity="0.1" clip-path="url(#clip0_1693_6431)">
<path d="M251.256 29.1138H275.594V39.7264H275.91C280.501 31.7969 290.79 26.9111 299.971 26.9111C325.495 26.9111 327.553 45.7335 327.553 56.9068V106.606H302.464V69.1213C302.464 58.5087 303.651 47.7759 289.919 47.7759C280.461 47.7759 276.346 55.8255 276.346 64.3557V106.606H251.256V29.1138Z" fill="#555658"/>
<path d="M360.551 81.3365C360.551 85.2211 362.174 88.0645 364.667 89.9868C367.041 91.7889 370.405 92.67 373.966 92.67C378.834 92.67 385.759 90.5875 385.759 84.4602C385.759 78.333 377.963 77.2917 373.531 76.2505C357.742 72.2057 337.995 71.7651 337.995 50.8603C337.995 32.1981 357.9 27.1121 372.977 27.1121C389.796 27.1121 407.326 32.0379 408.237 52.1819H385.086C385.086 48.898 383.899 46.8155 381.841 45.4539C379.784 44.0922 376.974 43.4915 373.887 43.4915C369.772 43.4915 363.124 43.9321 363.124 49.2984C363.124 56.6272 379.942 57.9487 391.458 60.5118C406.931 63.6355 410.928 75.009 410.928 81.4166C410.928 102.161 391.458 109.049 374.204 109.049C356.08 109.049 337.48 102.922 336.728 81.2564H360.63L360.551 81.3365Z" fill="#555658"/>
<path d="M456.592 89.3061C468.227 89.3061 471.907 77.6522 471.907 67.8005C471.907 57.9488 468.227 46.1348 456.592 46.1348C444.958 46.1348 441.396 57.9488 441.396 67.8005C441.396 77.6522 444.918 89.3061 456.592 89.3061ZM456.592 26.7517C480.336 26.7517 496.996 44.5328 496.996 67.8005C496.996 91.0682 480.336 108.729 456.592 108.729C432.849 108.729 416.307 91.1082 416.307 67.8005C416.307 44.4928 432.849 26.7517 456.592 26.7517Z" fill="#555658"/>
<path d="M530.039 0H504.949V106.607H530.039V0Z" fill="#555658"/>
<path d="M61.7272 0H90.378V39.4469H123.54V0H152.033V106.607H123.54V64.5567H90.378V106.607H61.7272V0Z" fill="#555658"/>
<path d="M32.7268 0H0V37.845H32.7268V0Z" fill="#007DC5"/>
<path d="M32.7268 67.4001H0V106.607H32.7268V67.4001Z" fill="#00A650"/>
<path d="M197.156 93.1501C209.107 93.1501 213.104 86.302 212.51 70.323C208.988 72.5657 202.498 73.0062 196.998 74.4879C191.378 75.8496 186.669 78.2124 186.669 84.3397C186.669 90.4669 191.537 93.1501 197.116 93.1501M164.667 52.9824C165.102 42.8503 169.851 36.2425 176.618 32.2377C183.424 28.3531 192.249 26.8713 200.955 26.8713C219.119 26.8713 236.65 30.9161 236.65 52.8622V86.7425C236.65 93.3103 236.65 100.479 239.618 106.606H214.41C213.539 104.203 213.223 101.84 212.946 99.2774C206.456 106.126 196.879 108.809 187.698 108.809C173.096 108.809 161.58 101.36 161.58 85.3809C161.58 60.1509 188.727 62.0732 206.139 58.5089C210.413 57.6279 212.787 56.1061 212.787 51.3404C212.787 45.5335 205.862 43.2909 200.678 43.2909C193.753 43.2909 189.321 46.4146 188.133 52.9824H164.667Z" fill="#555658"/>
</g>
<defs>
<clipPath id="clip0_1693_6431">
<rect width="530" height="110" fill="white"/>
</clipPath>
</defs>
</svg>
